<svg xmlns="http://www.w3.org/2000/svg" xmlns:xlink="http://www.w3.org/1999/xlink" width="640" height="25">
  <svg width="25" height="25" id="facebook">
    <path d="M14.844 4.688h3.906V0h-3.906a5.475 5.475 0 0 0-5.469 5.469v2.344H6.25v4.688h3.125v12.5h4.688v-12.5h3.906l.781-4.688h-4.688V5.469c0-.423.358-.781.781-.781z"/>
  </svg>
  <svg width="25" height="25" x="41" id="instagram">
    <path d="M12.5 2.251c3.34 0 3.735.015 5.049.073 1.221.054 1.88.259 2.319.43a3.872 3.872 0 0 1 1.436.933c.439.439.708.854.938 1.436.171.439.376 1.104.43 2.319.059 1.318.073 1.714.073 5.049s-.015 3.735-.073 5.049c-.054 1.221-.259 1.88-.43 2.319a3.872 3.872 0 0 1-.933 1.436 3.92 3.92 0 0 1-1.436.938c-.439.171-1.104.376-2.319.43-1.318.059-1.714.073-5.049.073s-3.735-.015-5.049-.073c-1.221-.054-1.88-.259-2.319-.43a3.872 3.872 0 0 1-1.436-.933 3.92 3.92 0 0 1-.938-1.436c-.171-.439-.376-1.104-.43-2.319-.059-1.318-.073-1.714-.073-5.049s.015-3.735.073-5.049c.054-1.221.259-1.88.43-2.319a3.872 3.872 0 0 1 .933-1.436 3.92 3.92 0 0 1 1.436-.938c.439-.171 1.104-.376 2.319-.43 1.313-.059 1.709-.073 5.049-.073zM12.5 0C9.106 0 8.682.015 7.349.073 6.021.132 5.108.346 4.317.654A6.107 6.107 0 0 0 2.1 2.099 6.123 6.123 0 0 0 .655 4.311C.347 5.107.133 6.015.074 7.343.015 8.681.001 9.106.001 12.499s.015 3.818.073 5.151c.059 1.328.273 2.241.581 3.032A6.107 6.107 0 0 0 2.1 22.899a6.108 6.108 0 0 0 2.212 1.44c.796.308 1.704.522 3.032.581 1.333.059 1.758.073 5.151.073s3.818-.015 5.151-.073c1.328-.059 2.241-.273 3.032-.581.82-.317 1.519-.747 2.212-1.44s1.123-1.392 1.44-2.212c.308-.796.522-1.704.581-3.032.059-1.333.073-1.758.073-5.151s-.015-3.818-.073-5.151c-.059-1.328-.273-2.241-.581-3.032a5.858 5.858 0 0 0-1.431-2.222 6.108 6.108 0 0 0-2.212-1.44c-.796-.308-1.704-.522-3.032-.581C16.317.015 15.892 0 12.499 0z"/>
    <path d="M12.5 6.079c-3.545 0-6.421 2.876-6.421 6.421s2.876 6.421 6.421 6.421 6.421-2.876 6.421-6.421A6.423 6.423 0 0 0 12.5 6.079zm0 10.586a4.165 4.165 0 1 1 0-8.33 4.165 4.165 0 0 1 0 8.33zM20.674 5.825a1.499 1.499 0 1 1-2.998 0 1.499 1.499 0 0 1 2.998 0z"/>
  </svg>
  <svg width="25" height="25" x="82" id="youtube" style="fill: #000;">
    <path d="M24.751 7.5s-.244-1.724-.996-2.48c-.952-.996-2.017-1.001-2.505-1.06-3.496-.254-8.745-.254-8.745-.254h-.01s-5.249 0-8.745.254c-.488.059-1.553.063-2.505 1.06C.493 5.777.254 7.5.254 7.5S.005 9.521.005 11.548v1.895c0 2.021.249 4.048.249 4.048s.244 1.724.991 2.48c.952.996 2.202.962 2.759 1.069 2.002.19 8.501.249 8.501.249s5.254-.01 8.75-.259c.488-.059 1.553-.063 2.505-1.06.752-.757.996-2.48.996-2.48s.249-2.021.249-4.048v-1.895c-.005-2.021-.254-4.048-.254-4.048zM9.917 15.742V8.716l6.753 3.525-6.753 3.501z"/>
  </svg>
</svg>
